# Blender 4.3.2
# www.blender.org
mtllib chao_xadrez.mtl
o Cube
v 8.730618 0.059336 -8.757026
v 8.730618 -0.059336 -8.757026
v 8.730618 0.059336 8.757026
v 8.730618 -0.059336 8.757026
v -8.730618 0.059336 -8.757026
v -8.730618 -0.059336 -8.757026
v -8.730618 0.059336 8.757026
v -8.730618 -0.059336 8.757026
vn -0.0000 1.0000 -0.0000
vn -0.0000 -0.0000 1.0000
vn -1.0000 -0.0000 -0.0000
vn -0.0000 -1.0000 -0.0000
vn 1.0000 -0.0000 -0.0000
vn -0.0000 -0.0000 -1.0000
vt 1.928323 0.500000
vt 4.784968 0.500000
vt 4.784968 3.356646
vt 1.928323 3.356645
vt -0.928323 3.356646
vt 1.928323 6.213291
vt -0.928323 6.213291
vt -0.928323 -5.213291
vt 1.928323 -5.213291
vt 1.928323 -2.356646
vt -0.928323 -2.356646
vt -3.784968 0.500000
vt -0.928323 0.500000
vt -3.784968 3.356646
s 0
usemtl Material
f 1/1/1 5/2/1 7/3/1 3/4/1
f 4/5/2 3/4/2 7/6/2 8/7/2
f 8/8/3 7/9/3 5/10/3 6/11/3
f 6/12/4 2/13/4 4/5/4 8/14/4
f 2/13/5 1/1/5 3/4/5 4/5/5
f 6/11/6 5/10/6 1/1/6 2/13/6
