# Blender 4.3.2
# www.blender.org
mtllib sniper.mtl
o Cube
v 0.088287 0.190000 -2.110000
v 0.115318 -0.190000 -2.110000
v 0.105028 0.190000 1.918155
v 0.115318 -0.190000 2.302500
v -0.088287 0.190000 -2.110000
v -0.115318 -0.190000 -2.110000
v -0.105028 0.190000 1.918155
v -0.115318 -0.190000 2.302500
v 0.000000 0.347704 -0.000000
vn -0.0000 1.0000 -0.0000
vn -0.0000 0.7111 0.7031
vn -0.9988 0.0480 -0.0020
vn -0.0000 -1.0000 -0.0000
vn 0.9988 0.0480 -0.0020
vn -0.0000 -0.0000 -1.0000
vt 0.625000 0.500000
vt 0.875000 0.500000
vt 0.875000 0.750000
vt 0.625000 0.750000
vt 0.375000 0.750000
vt 0.625000 1.000000
vt 0.375000 1.000000
vt 0.375000 0.000000
vt 0.625000 0.000000
vt 0.625000 0.250000
vt 0.375000 0.250000
vt 0.125000 0.500000
vt 0.375000 0.500000
vt 0.125000 0.750000
s 0
usemtl Material
f 1/1/1 5/2/1 7/3/1 3/4/1
f 4/5/2 3/4/2 7/6/2 8/7/2
f 8/8/3 7/9/3 5/10/3 6/11/3
f 6/12/4 2/13/4 4/5/4 8/14/4
f 2/13/5 1/1/5 3/4/5 4/5/5
f 6/11/6 5/10/6 1/1/6 2/13/6
o Cilindro
v 0.000000 0.091177 1.649444
v 0.000000 0.091177 0.289444
v 0.033165 0.094036 1.649444
v 0.033165 0.094036 0.289444
v 0.065056 0.102505 1.649444
v 0.065056 0.102505 0.289444
v 0.094447 0.116258 1.649444
v 0.094447 0.116258 0.289444
v 0.120208 0.134766 1.649444
v 0.120208 0.134766 0.289444
v 0.141350 0.157318 1.649444
v 0.141350 0.157318 0.289444
v 0.157060 0.183048 1.649444
v 0.157060 0.183048 0.289444
v 0.166733 0.210966 1.649444
v 0.166733 0.210966 0.289444
v 0.170000 0.240000 1.649444
v 0.170000 0.240000 0.289444
v 0.166733 0.269034 1.649444
v 0.166733 0.269034 0.289444
v 0.157060 0.296952 1.649444
v 0.157060 0.296952 0.289444
v 0.141350 0.322682 1.649444
v 0.141350 0.322682 0.289444
v 0.120208 0.345234 1.649444
v 0.120208 0.345234 0.289444
v 0.094447 0.363742 1.649444
v 0.094447 0.363742 0.289444
v 0.065056 0.377495 1.649444
v 0.065056 0.377495 0.289444
v 0.033165 0.385964 1.649444
v 0.033165 0.385964 0.289444
v 0.000000 0.388823 1.649444
v 0.000000 0.388823 0.289444
v -0.033165 0.385964 1.649444
v -0.033165 0.385964 0.289444
v -0.065056 0.377495 1.649444
v -0.065056 0.377495 0.289444
v -0.094447 0.363742 1.649444
v -0.094447 0.363742 0.289444
v -0.120208 0.345234 1.649444
v -0.120208 0.345234 0.289444
v -0.141350 0.322682 1.649444
v -0.141350 0.322682 0.289444
v -0.157060 0.296952 1.649444
v -0.157060 0.296952 0.289444
v -0.166733 0.269034 1.649444
v -0.166733 0.269034 0.289444
v -0.170000 0.240000 1.649444
v -0.170000 0.240000 0.289444
v -0.166733 0.210966 1.649444
v -0.166733 0.210966 0.289444
v -0.157060 0.183048 1.649444
v -0.157060 0.183048 0.289444
v -0.141350 0.157318 1.649444
v -0.141350 0.157318 0.289444
v -0.120208 0.134766 1.649444
v -0.120208 0.134766 0.289444
v -0.094447 0.116258 1.649444
v -0.094447 0.116258 0.289444
v -0.065056 0.102505 1.649444
v -0.065056 0.102505 0.289444
v -0.033165 0.094036 1.649444
v -0.033165 0.094036 0.289444
vn 0.0859 -0.9963 -0.0000
vn 0.2567 -0.9665 -0.0000
vn 0.4238 -0.9057 -0.0000
vn 0.5835 -0.8121 -0.0000
vn 0.7296 -0.6839 -0.0000
vn 0.8535 -0.5211 -0.0000
vn 0.9449 -0.3274 -0.0000
vn 0.9937 -0.1118 -0.0000
vn 0.9937 0.1118 -0.0000
vn 0.9449 0.3274 -0.0000
vn 0.8535 0.5211 -0.0000
vn 0.7296 0.6839 -0.0000
vn 0.5835 0.8121 -0.0000
vn 0.4238 0.9057 -0.0000
vn 0.2567 0.9665 -0.0000
vn 0.0859 0.9963 -0.0000
vn -0.0859 0.9963 -0.0000
vn -0.2567 0.9665 -0.0000
vn -0.4238 0.9057 -0.0000
vn -0.5835 0.8121 -0.0000
vn -0.7296 0.6839 -0.0000
vn -0.8535 0.5211 -0.0000
vn -0.9449 0.3274 -0.0000
vn -0.9937 0.1118 -0.0000
vn -0.9937 -0.1118 -0.0000
vn -0.9449 -0.3274 -0.0000
vn -0.8535 -0.5211 -0.0000
vn -0.7296 -0.6839 -0.0000
vn -0.5835 -0.8121 -0.0000
vn -0.4238 -0.9057 -0.0000
vn -0.0000 -0.0000 -1.0000
vn -0.2567 -0.9665 -0.0000
vn -0.0859 -0.9963 -0.0000
vn -0.0000 -0.0000 1.0000
vt 1.000000 0.500000
vt 1.000000 1.000000
vt 0.968750 1.000000
vt 0.968750 0.500000
vt 0.937500 1.000000
vt 0.937500 0.500000
vt 0.906250 1.000000
vt 0.906250 0.500000
vt 0.875000 1.000000
vt 0.875000 0.500000
vt 0.843750 1.000000
vt 0.843750 0.500000
vt 0.812500 1.000000
vt 0.812500 0.500000
vt 0.781250 1.000000
vt 0.781250 0.500000
vt 0.750000 1.000000
vt 0.750000 0.500000
vt 0.718750 1.000000
vt 0.718750 0.500000
vt 0.687500 1.000000
vt 0.687500 0.500000
vt 0.656250 1.000000
vt 0.656250 0.500000
vt 0.625000 1.000000
vt 0.625000 0.500000
vt 0.593750 1.000000
vt 0.593750 0.500000
vt 0.562500 1.000000
vt 0.562500 0.500000
vt 0.531250 1.000000
vt 0.531250 0.500000
vt 0.500000 1.000000
vt 0.500000 0.500000
vt 0.468750 1.000000
vt 0.468750 0.500000
vt 0.437500 1.000000
vt 0.437500 0.500000
vt 0.406250 1.000000
vt 0.406250 0.500000
vt 0.375000 1.000000
vt 0.375000 0.500000
vt 0.343750 1.000000
vt 0.343750 0.500000
vt 0.312500 1.000000
vt 0.312500 0.500000
vt 0.281250 1.000000
vt 0.281250 0.500000
vt 0.250000 1.000000
vt 0.250000 0.500000
vt 0.218750 1.000000
vt 0.218750 0.500000
vt 0.187500 1.000000
vt 0.187500 0.500000
vt 0.156250 1.000000
vt 0.156250 0.500000
vt 0.125000 1.000000
vt 0.125000 0.500000
vt 0.093750 1.000000
vt 0.093750 0.500000
vt 0.062500 1.000000
vt 0.062500 0.500000
vt 0.296822 0.485388
vt 0.250000 0.490000
vt 0.203178 0.485388
vt 0.158156 0.471731
vt 0.116663 0.449553
vt 0.080294 0.419706
vt 0.050447 0.383337
vt 0.028269 0.341844
vt 0.014612 0.296822
vt 0.010000 0.250000
vt 0.014612 0.203178
vt 0.028269 0.158156
vt 0.050447 0.116663
vt 0.080294 0.080294
vt 0.116663 0.050447
vt 0.158156 0.028269
vt 0.203178 0.014612
vt 0.250000 0.010000
vt 0.296822 0.014612
vt 0.341844 0.028269
vt 0.383337 0.050447
vt 0.419706 0.080294
vt 0.449553 0.116663
vt 0.471731 0.158156
vt 0.485388 0.203178
vt 0.490000 0.250000
vt 0.485388 0.296822
vt 0.471731 0.341844
vt 0.449553 0.383337
vt 0.419706 0.419706
vt 0.383337 0.449553
vt 0.341844 0.471731
vt 0.031250 1.000000
vt 0.031250 0.500000
vt 0.000000 1.000000
vt 0.000000 0.500000
vt 0.750000 0.490000
vt 0.796822 0.485388
vt 0.841844 0.471731
vt 0.883337 0.449553
vt 0.919706 0.419706
vt 0.949553 0.383337
vt 0.971731 0.341844
vt 0.985388 0.296822
vt 0.990000 0.250000
vt 0.985388 0.203178
vt 0.971731 0.158156
vt 0.949553 0.116663
vt 0.919706 0.080294
vt 0.883337 0.050447
vt 0.841844 0.028269
vt 0.796822 0.014612
vt 0.750000 0.010000
vt 0.703178 0.014612
vt 0.658156 0.028269
vt 0.616663 0.050447
vt 0.580294 0.080294
vt 0.550447 0.116663
vt 0.528269 0.158156
vt 0.514612 0.203178
vt 0.510000 0.250000
vt 0.514612 0.296822
vt 0.528269 0.341844
vt 0.550447 0.383337
vt 0.580294 0.419706
vt 0.616663 0.449553
vt 0.658156 0.471731
vt 0.703178 0.485388
s 0
f 10/15/7 11/16/7 13/17/7 12/18/7
f 12/18/8 13/17/8 15/19/8 14/20/8
f 14/20/9 15/19/9 17/21/9 16/22/9
f 16/22/10 17/21/10 19/23/10 18/24/10
f 18/24/11 19/23/11 21/25/11 20/26/11
f 20/26/12 21/25/12 23/27/12 22/28/12
f 22/28/13 23/27/13 25/29/13 24/30/13
f 24/30/14 25/29/14 27/31/14 26/32/14
f 26/32/15 27/31/15 29/33/15 28/34/15
f 28/34/16 29/33/16 31/35/16 30/36/16
f 30/36/17 31/35/17 33/37/17 32/38/17
f 32/38/18 33/37/18 35/39/18 34/40/18
f 34/40/19 35/39/19 37/41/19 36/42/19
f 36/42/20 37/41/20 39/43/20 38/44/20
f 38/44/21 39/43/21 41/45/21 40/46/21
f 40/46/22 41/45/22 43/47/22 42/48/22
f 42/48/23 43/47/23 45/49/23 44/50/23
f 44/50/24 45/49/24 47/51/24 46/52/24
f 46/52/25 47/51/25 49/53/25 48/54/25
f 48/54/26 49/53/26 51/55/26 50/56/26
f 50/56/27 51/55/27 53/57/27 52/58/27
f 52/58/28 53/57/28 55/59/28 54/60/28
f 54/60/29 55/59/29 57/61/29 56/62/29
f 56/62/30 57/61/30 59/63/30 58/64/30
f 58/64/31 59/63/31 61/65/31 60/66/31
f 60/66/32 61/65/32 63/67/32 62/68/32
f 62/68/33 63/67/33 65/69/33 64/70/33
f 64/70/34 65/69/34 67/71/34 66/72/34
f 66/72/35 67/71/35 69/73/35 68/74/35
f 68/74/36 69/73/36 71/75/36 70/76/36
f 13/77/37 11/78/37 73/79/37 71/80/37 69/81/37 67/82/37 65/83/37 63/84/37 61/85/37 59/86/37 57/87/37 55/88/37 53/89/37 51/90/37 49/91/37 47/92/37 45/93/37 43/94/37 41/95/37 39/96/37 37/97/37 35/98/37 33/99/37 31/100/37 29/101/37 27/102/37 25/103/37 23/104/37 21/105/37 19/106/37 17/107/37 15/108/37
f 70/76/38 71/75/38 73/109/38 72/110/38
f 72/110/39 73/109/39 11/111/39 10/112/39
f 10/113/40 12/114/40 14/115/40 16/116/40 18/117/40 20/118/40 22/119/40 24/120/40 26/121/40 28/122/40 30/123/40 32/124/40 34/125/40 36/126/40 38/127/40 40/128/40 42/129/40 44/130/40 46/131/40 48/132/40 50/133/40 52/134/40 54/135/40 56/136/40 58/137/40 60/138/40 62/139/40 64/140/40 66/141/40 68/142/40 70/143/40 72/144/40
o Cubo
v -0.115318 -0.190000 1.321256
v -0.115318 -0.390000 1.321256
v -0.115318 -0.190000 2.301255
v -0.115318 -0.390000 2.301255
v 0.115318 -0.190000 1.321256
v 0.115318 -0.390000 1.321256
v 0.115318 -0.190000 2.301255
v 0.115318 -0.390000 2.301255
vn -1.0000 -0.0000 -0.0000
vn -0.0000 -0.0000 1.0000
vn 1.0000 -0.0000 -0.0000
vn -0.0000 -0.0000 -1.0000
vn -0.0000 1.0000 -0.0000
vn -0.0000 -1.0000 -0.0000
vt 0.375000 0.000000
vt 0.625000 0.000000
vt 0.625000 0.250000
vt 0.375000 0.250000
vt 0.625000 0.500000
vt 0.375000 0.500000
vt 0.625000 0.750000
vt 0.375000 0.750000
vt 0.625000 1.000000
vt 0.375000 1.000000
vt 0.125000 0.500000
vt 0.125000 0.750000
vt 0.875000 0.500000
vt 0.875000 0.750000
s 0
f 74/145/41 75/146/41 77/147/41 76/148/41
f 76/148/42 77/147/42 81/149/42 80/150/42
f 80/150/43 81/149/43 79/151/43 78/152/43
f 78/152/44 79/151/44 75/153/44 74/154/44
f 76/155/45 80/150/45 78/152/45 74/156/45
f 81/149/46 77/157/46 75/158/46 79/151/46
o Cubo.001
v -0.115318 -0.502587 2.488190
v -0.115318 -0.194007 2.302776
v -0.115318 -0.698302 2.162467
v -0.115318 -0.389722 1.977053
v 0.115318 -0.502587 2.488190
v 0.115318 -0.194007 2.302776
v 0.115318 -0.698302 2.162467
v 0.115318 -0.389722 1.977053
vn -1.0000 -0.0000 -0.0000
vn -0.0000 -0.5150 -0.8572
vn 1.0000 -0.0000 -0.0000
vn -0.0000 0.5150 0.8572
vn -0.0000 -0.8572 0.5150
vn -0.0000 0.8572 -0.5150
vt 0.375000 0.000000
vt 0.625000 0.000000
vt 0.625000 0.250000
vt 0.375000 0.250000
vt 0.625000 0.500000
vt 0.375000 0.500000
vt 0.625000 0.750000
vt 0.375000 0.750000
vt 0.625000 1.000000
vt 0.375000 1.000000
vt 0.125000 0.500000
vt 0.125000 0.750000
vt 0.875000 0.500000
vt 0.875000 0.750000
s 0
f 82/159/47 83/160/47 85/161/47 84/162/47
f 84/162/48 85/161/48 89/163/48 88/164/48
f 88/164/49 89/163/49 87/165/49 86/166/49
f 86/166/50 87/165/50 83/167/50 82/168/50
f 84/169/51 88/164/51 86/166/51 82/170/51
f 89/163/52 85/171/52 83/172/52 87/165/52
o Cubo.002
v -0.115318 -0.712211 1.326755
v -0.115318 -0.192211 1.326755
v -0.115318 -0.712211 0.866755
v -0.115318 -0.192211 0.866755
v 0.115318 -0.712211 1.326755
v 0.115318 -0.192211 1.326755
v 0.115318 -0.712211 0.866755
v 0.115318 -0.192211 0.866755
vn -1.0000 -0.0000 -0.0000
vn -0.0000 -0.0000 -1.0000
vn 1.0000 -0.0000 -0.0000
vn -0.0000 -0.0000 1.0000
vn -0.0000 -1.0000 -0.0000
vn -0.0000 1.0000 -0.0000
vt 0.375000 0.000000
vt 0.625000 0.000000
vt 0.625000 0.250000
vt 0.375000 0.250000
vt 0.625000 0.500000
vt 0.375000 0.500000
vt 0.625000 0.750000
vt 0.375000 0.750000
vt 0.625000 1.000000
vt 0.375000 1.000000
vt 0.125000 0.500000
vt 0.125000 0.750000
vt 0.875000 0.500000
vt 0.875000 0.750000
s 0
f 90/173/53 91/174/53 93/175/53 92/176/53
f 92/176/54 93/175/54 97/177/54 96/178/54
f 96/178/55 97/177/55 95/179/55 94/180/55
f 94/180/56 95/179/56 91/181/56 90/182/56
f 92/183/57 96/178/57 94/180/57 90/184/57
f 97/177/58 93/185/58 91/186/58 95/179/58
